<svg preserveAspectRatio="xMidYMid meet" data-bbox="25 34 150 132.1" viewBox="25 34 150 132.1" height="25" width="25" xmlns="http://www.w3.org/2000/svg" data-type="color" role="presentation" aria-hidden="true">
    <g>
        <path d="M151.9 39.6c-6.6-3.7-14.1-5.6-21.7-5.6-11.2 0-21.9 4.2-30.2 11.7C91.9 38.2 81.1 34 69.8 34c-7.5 0-15 1.9-21.6 5.6C33.9 47.5 25 62.6 25 78.9c0 4.5.8 9.2 2.1 13.6 3.2 13.7 15.9 30.1 38.1 48.5 16.1 13.4 31.2 22.9 31.8 23.2l3 1.9 3-1.8c.7-.4 15.7-9.9 31.8-23.2 22-18.4 34.9-34.7 38.1-48.5 1.4-4.5 2.1-9 2.1-13.6 0-16.4-8.8-31.4-23.1-39.4zm10.2 49.6l-.2.5c-2.5 11.1-14.3 25.7-34.2 42.4-11.4 9.5-22.5 17.2-27.7 20.6-5.1-3.4-16.2-11-27.6-20.4-9.1-7.5-16.5-14.8-22.2-21.4-6.8-7.9-10.8-15-12.2-21l-.2-.6c-1.1-3.3-1.6-6.8-1.6-10.3 0-12.2 6.6-23.4 17.3-29.4 5.1-2.7 10.5-4.2 16.2-4.2 10 0 19.5 4.5 25.9 12.2l4.4 5.2 4.4-5.2c6.4-7.7 15.8-12.2 25.8-12.2 5.7 0 11.2 1.4 16.2 4.1 10.7 6 17.4 17.2 17.4 29.4 0 3.5-.6 7-1.7 10.3z" fill="#ef4e72" data-color="1"/>
        <path d="M140.2 55.7c-5.7-3.1-15.6-4.5-25 2.1l6.4 9.3c6.9-4.7 12.5-1.8 13.1-1.5 5.8 3.3 9.4 9 9.4 15.1 0 1.7-.3 3.6-.9 5.2l-.2.5c-.9 4.3-5.8 9.9-9.4 13.7-4 4.3-8.6 8.6-12.5 11.8l7 8.8c4.4-3.5 9.3-8.2 13.7-12.9 5.1-5.5 10.5-11.9 12.1-18.7.9-2.7 1.4-5.7 1.4-8.6.2-10-5.7-19.6-15.1-24.8z" fill="#ef4e72" data-color="1"/>
    </g>
</svg>